<svg xmlns="http://www.w3.org/2000/svg" viewBox="0 0 32 32" width="32" height="32">
  <circle cx="16" cy="16" r="16" fill="#B6509E"/>
  <path d="M22.934,8.036c-0.756,0-1.459,0.296-1.985,0.834 c-0.541,0.547-0.833,1.277-0.82,2.051c0.012,1.542,1.261,2.819,2.789,2.844 c0.825,0.012,1.576-0.294,2.13-0.87c0.541-0.559,0.833-1.301,0.821-2.088 C25.857,9.313,24.559,8.036,22.934,8.036z M11.984,11.016c-0.164,0.536-0.413,1.328-0.752,2.533 c-0.729,2.65-0.776,2.809-0.776,2.809H7.597l4.397-11.322h3.352 c0,0,0.612,1.484,1.224,3.056c0.011,0,0.011,0,0.011,0 c0.306,0.764,0.612,1.542,0.764,1.93c0.199,0.478,0.424,1.099,0.648,1.777 c0.223-0.866,0.494-1.825,0.752-2.544c0.47-1.314,0.94-2.639,0.94-2.639 c0.188-0.501,0.399-1.064,0.611-1.582h3.27l-4.333,11.322h-3.234 c0,0-0.729-1.813-1.388-3.514l-0.012-0.036c-0.294-0.74-0.588-1.494-0.752-1.907 c-0.164-0.403-0.411-1.075-0.635-1.706C12.467,9.805,12.184,10.445,11.984,11.016z M20.639,20.999l-2.024,4.007h-2.941l2-3.936H6.267L8.29,17.063h12.349V20.999z" fill="white"/>
</svg> 