<svg xmlns="http://www.w3.org/2000/svg" viewBox="0 0 32 32" width="32" height="32">
  <g fill="none">
    <circle cx="16" cy="16" r="16" fill="#2D374B"/>
    <path d="M16.25,10.164v5.515c0,0.276,0.224,0.5,0.5,0.5h3.666v2.107 H16.75c-1.437,0-2.607-1.169-2.607-2.607v-5.515H11.5V8.057h2.641V5.32h2.108v2.736h4.166v2.107H16.25z" fill="#28A0F0"/>
    <path d="M20.107,23.278H18l-1.811-2.87h-1.42 v2.87h-2.107V18.33h4.445c0.242,0,0.463-0.134,0.572-0.349 c0.11-0.215,0.078-0.475-0.082-0.66l-0.328-0.378 c-0.164-0.189-0.144-0.531,0.045-0.694 c0.188-0.162,0.472-0.142,0.636,0.047l3.039,3.5 c0.167,0.191,0.153,0.506-0.027,0.682l-1.855,1.8 L20.107,23.278z M14.769,18.328v-0.002V18.328z M16.769,18.328h-2v0.002h2 V18.328z" fill="#28A0F0"/>
  </g>
</svg> 