<svg xmlns="http://www.w3.org/2000/svg" viewBox="0 0 32 32" width="32" height="32">
  <circle cx="16" cy="16" r="16" fill="#00D395"/>
  <path d="M22.993,11.441c-1.641-1.838-4.118-2.255-6.259-1.598 c-0.205-0.525-0.541-1.069-1.026-1.612C14.067,6.363,11.591,5.944,9.45,6.6 C7.309,7.258,5.775,9.141,5.526,11.41c-0.116,1.059,0.05,2.111,0.476,3.077 c-0.419,0.467-0.75,0.98-0.963,1.535c-0.249,2.269,1.025,4.415,3.166,5.071 c2.141,0.658,4.617,0.078,6.257-1.599c0.087-0.099,0.168-0.203,0.244-0.311 c0.077,0.108,0.158,0.212,0.245,0.311c1.641,1.838,4.118,2.257,6.259,1.6 c2.141-0.657,3.674-2.802,3.424-5.071C24.387,14.185,23.913,12.754,22.993,11.441z M10.119,16.251c-0.673-0.759-0.844-1.777-0.661-2.667c0.184-0.89,0.777-1.676,1.639-2.038 c0.867-0.364,1.870-0.305,2.747,0.134c0.876,0.439,1.561,1.212,1.914,2.091 c0.077,0.193,0.135,0.385,0.173,0.573c-0.007,0.019-0.014,0.037-0.021,0.056 c-0.116,0.335-0.148,0.687-0.096,1.025c-0.346,0.188-0.698,0.342-1.054,0.457 c-0.363,0.117-0.729,0.193-1.096,0.23C12.358,18.039,10.791,17.011,10.119,16.251z M18.634,16.251c-0.673,0.759-2.24,1.788-3.646,1.861c0.155-0.438,0.17-0.903,0.065-1.337 c0.366-0.038,0.732-0.114,1.095-0.23c0.741-0.24,1.459-0.629,2.111-1.17 c0.006-0.005,0.011-0.01,0.017-0.015c0.019,0.047,0.037,0.094,0.058,0.142 C18.495,15.783,18.588,16.024,18.634,16.251z M19.295,13.584c-0.072-0.183-0.156-0.366-0.252-0.548 c-0.353-0.679-0.89-1.276-1.561-1.712c0.183-0.028,0.364-0.043,0.543-0.043 c0.792,0,1.52,0.277,2.055,0.733c0.535,0.456,0.855,1.07,0.905,1.731 C20.988,13.094,20.056,13.135,19.295,13.584z" fill="white"/>
</svg> 