<svg xmlns="http://www.w3.org/2000/svg" viewBox="0 0 32 32" width="32" height="32">
  <circle cx="16" cy="16" r="16" fill="#FF0420"/>
  <path d="M9.087,10.803c0-0.659,0.46-1.152,1.186-1.152 c0.744,0,1.203,0.493,1.203,1.152c0,0.654-0.459,1.133-1.203,1.133 C9.547,11.936,9.087,11.457,9.087,10.803z M9.248,13.305h2.064v6.912H9.248V13.305z M12.308,16.757c0-2.103,1.355-3.599,3.487-3.599 c2.127,0,3.465,1.495,3.465,3.599c0,2.097-1.338,3.604-3.465,3.604 C13.663,20.361,12.308,18.854,12.308,16.757z M17.155,16.757c0-1.1-0.533-1.881-1.355-1.881 c-0.826,0-1.371,0.781-1.371,1.881c0,1.111,0.545,1.883,1.371,1.883 C16.622,18.64,17.155,17.868,17.155,16.757z M20.191,13.305h2.064v1.037c0.399-0.662,1.116-1.186,2.281-1.186 c1.774,0,2.932,1.373,2.932,3.552v3.509h-2.074v-3.287c0-1.196-0.561-1.954-1.606-1.954 c-1.03,0-1.597,0.758-1.597,1.954v3.287h-2.064V13.305H20.191z" fill="white"/>
</svg> 