<svg xmlns="http://www.w3.org/2000/svg" viewBox="0 0 32 32" width="32" height="32">
  <g fill="none">
    <circle cx="16" cy="16" r="16" fill="#8247E5"/>
    <path d="M21.092,13.116L17.743,11.082c-0.178-0.108-0.382-0.16-0.582-0.16 c-0.205,0-0.409,0.053-0.587,0.16l-3.35,2.034c-0.364,0.221-0.585,0.614-0.585,1.038 v4.081c0,0.423,0.222,0.816,0.585,1.037l3.349,2.027c0.178,0.108,0.382,0.16,0.587,0.16 c0.205,0,0.409-0.053,0.587-0.16l3.349-2.027c0.365-0.22,0.586-0.614,0.585-1.037 v-4.081C21.678,13.73,21.456,13.336,21.092,13.116z M17.162,19.293l-2.394-1.438v-2.89 l2.394,1.438V19.293z M13.928,13.116L11.31,11.577c-0.177-0.108-0.381-0.16-0.586-0.16 c-0.205,0-0.409,0.053-0.587,0.16L6.788,13.611c-0.365,0.221-0.587,0.614-0.587,1.038 v4.081c0,0.423,0.221,0.816,0.585,1.037l3.35,2.034c0.177,0.108,0.382,0.16,0.587,0.16 c0.205,0,0.409-0.053,0.587-0.16l2.619-1.546c0.224-0.132,0.394-0.328,0.497-0.547 c0.103-0.219,0.131-0.467,0.086-0.705v-3.714C14.512,13.73,14.291,13.336,13.928,13.116z M25.259,13.611l-3.35-2.034c-0.177-0.108-0.382-0.16-0.587-0.16 c-0.205,0-0.409,0.053-0.586,0.16l-2.619,1.538c-0.364,0.221-0.586,0.614-0.586,1.038 v3.714c0,0.238,0.028,0.486,0.131,0.705c0.102,0.219,0.272,0.414,0.497,0.547 l2.618,1.546c0.177,0.108,0.382,0.16,0.587,0.16c0.205,0,0.409-0.053,0.587-0.16 l3.35-2.034c0.364-0.221,0.585-0.614,0.585-1.037v-4.081 C25.845,14.225,25.623,13.831,25.259,13.611z" fill="white"/>
  </g>
</svg> 