<svg xmlns="http://www.w3.org/2000/svg" viewBox="0 0 32 32" width="32" height="32">
  <circle cx="16" cy="16" r="16" fill="#FF007A"/>
  <path d="M18.328,18.136l1.618-0.547c0.073-0.025,0.103-0.112,0.066-0.179 c-0.1-0.181-0.214-0.387-0.291-0.548c-0.033-0.068-0.118-0.088-0.184-0.057 l-1.563,0.704c-0.405-0.54-1.115-0.705-1.735-0.416c-0.613,0.286-0.97,0.918-0.926,1.593 c0.045,0.688,0.51,1.259,1.152,1.414c0.801,0.194,1.523-0.211,1.831-0.933 C18.356,18.911,18.373,18.514,18.328,18.136z M10.704,11.881c-0.191-0.405-0.614-0.609-1.04-0.609 c-0.861,0-1.75,0.761-1.75,1.948c0,0.974,0.453,1.646,1.173,1.954 c0.503,0.214,1.05,0.059,1.439-0.29c0.028-0.025,0.037-0.065,0.024-0.1 l-0.152-0.444c-0.014-0.041-0.055-0.065-0.096-0.054c-0.096,0.026-0.188,0.04-0.277,0.04 c-0.236,0-0.463-0.085-0.602-0.234c-0.187-0.201-0.286-0.515-0.286-0.904 c0-0.579,0.296-1.071,0.756-1.071c0.196,0,0.325,0.096,0.379,0.22 c0.055,0.129,0.055,0.282,0.055,0.282c0,0.038,0.029,0.069,0.066,0.073l0.502,0.046 c0.022,0.002,0.043-0.005,0.059-0.02c0.016-0.015,0.025-0.035,0.025-0.057 C10.981,12.661,10.881,12.252,10.704,11.881z M20.283,18.409c-0.004-0.026-0.027-0.046-0.055-0.046 c-0.042,0-0.08,0.002-0.112,0.002c-0.161,0-0.259-0.064-0.295-0.19 c-0.025-0.086-0.038-0.201-0.039-0.401l0.004-0.598c0-0.003,0-0.006,0-0.009 c0.007-1.091-0.449-1.612-1.33-1.612c-0.385,0-0.793,0.128-1.061,0.334 c-0.027,0.021-0.037,0.056-0.026,0.088l0.12,0.328c0.011,0.029,0.039,0.048,0.071,0.046 c0.032-0.002,0.064-0.002,0.092-0.002c0.243,0,0.451,0.046,0.614,0.136 c0.164,0.09,0.267,0.227,0.267,0.401c0,0.124-0.047,0.216-0.12,0.278 c-0.071,0.062-0.169,0.097-0.275,0.123c-0.141,0.034-0.323,0.06-0.505,0.084 c-0.127,0.017-0.254,0.033-0.368,0.054c-0.122,0.023-0.241,0.054-0.347,0.1 c-0.108,0.047-0.2,0.111-0.27,0.2c-0.07,0.089-0.113,0.207-0.113,0.358 c0,0.272,0.149,0.501,0.36,0.651c0.211,0.15,0.479,0.211,0.756,0.211 c0.35,0,0.669-0.096,0.941-0.229c0.076-0.037,0.15-0.077,0.22-0.119 c0.031,0.104,0.082,0.195,0.151,0.272c0.084,0.094,0.202,0.166,0.347,0.214 c0.089,0.029,0.189,0.048,0.296,0.059c0.037,0.004,0.07-0.021,0.078-0.059l0.067-0.297 C20.288,18.454,20.29,18.431,20.283,18.409z M18.709,17.708c0,0.111-0.015,0.213-0.047,0.306 c-0.084,0.248-0.299,0.483-0.641,0.483c-0.09,0-0.18-0.018-0.248-0.056 c-0.069-0.039-0.114-0.098-0.114-0.177c0-0.054,0.018-0.1,0.051-0.14 c0.033-0.04,0.078-0.072,0.127-0.097c0.054-0.027,0.115-0.048,0.181-0.064 c0.053-0.013,0.108-0.024,0.165-0.035c0.076-0.015,0.155-0.029,0.232-0.047 c0.047-0.011,0.093-0.023,0.137-0.037c0.047-0.015,0.091-0.033,0.133-0.053 c0.027-0.013,0.051-0.027,0.074-0.043L18.709,17.708z M24.316,10.008c0.105,0.239,0.161,0.493,0.162,0.752 c0.005,1.062-0.754,1.998-1.813,2.24c-0.163,0.037-0.33,0.054-0.496,0.054 c-0.313,0-0.619-0.068-0.901-0.199c-0.066-0.031-0.145-0.004-0.177,0.062l-0.278,0.579 c-0.033,0.068-0.001,0.152,0.069,0.177c0.399,0.142,0.826,0.217,1.265,0.217 c0.251,0,0.501-0.024,0.746-0.071c1.617-0.311,2.688-1.624,2.683-3.06 c0-0.3-0.06-0.595-0.159-0.868c-0.026-0.071-0.108-0.104-0.175-0.075l-0.822,0.363 C24.337,9.907,24.291,9.959,24.316,10.008z M12.087,15.822l0.006-0.013 c0.051-0.111,0.103-0.224,0.154-0.336c0.051-0.113,0.101-0.223,0.151-0.333l0.003-0.007 c0.462-1.02,0.914-2.018,0.839-3.152c-0.05-0.756-0.299-1.429-0.716-1.973 c-0.406-0.53-0.975-0.938-1.696-1.137c-0.318-0.088-0.667-0.134-1.036-0.134 c-0.279,0-0.57,0.028-0.873,0.085c-0.05,0.009-0.1,0.018-0.151,0.028 c-0.034,0.007-0.061,0.035-0.063,0.071l-0.063,0.923c-0.001,0.022,0.007,0.044,0.022,0.06 c0.015,0.016,0.037,0.025,0.059,0.023c0.121-0.013,0.232-0.019,0.334-0.019 c0.155,0,0.291,0.015,0.411,0.047c0.346,0.09,0.593,0.287,0.748,0.583 c0.146,0.279,0.2,0.641,0.187,1.067c-0.023,0.725-0.319,1.413-0.622,2.117 c-0.049,0.114-0.099,0.229-0.148,0.345c-0.023,0.055-0.046,0.11-0.07,0.165 c-0.239,0.552-0.551,1.273-0.346,2.189c0.149,0.667,0.505,1.207,1.008,1.539 c0.509,0.337,1.133,0.467,1.788,0.429c0.081-0.005,0.156-0.014,0.225-0.023 c0.039-0.005,0.068-0.039,0.069-0.079l0.02-0.906c0-0.022-0.008-0.044-0.023-0.06 c-0.015-0.016-0.035-0.024-0.057-0.024c-0.021,0.001-0.043,0.002-0.064,0.002 c-0.266,0-0.476-0.055-0.63-0.157c-0.153-0.102-0.252-0.251-0.306-0.431 c-0.092-0.305-0.002-0.687,0.183-1.154c0.012-0.03,0.024-0.06,0.037-0.09 C11.977,16.066,12.032,15.944,12.087,15.822z M21.256,15.331c-0.039,0-0.071,0.032-0.071,0.071 v0.277c0,0.018-0.001,0.038-0.003,0.061c-0.026,0.267-0.133,0.471-0.304,0.59 c-0.174,0.12-0.42,0.157-0.724,0.155c-0.047,0-0.093-0.001-0.137-0.003 c-0.088-0.004-0.176-0.012-0.259-0.021c-0.039-0.004-0.074,0.021-0.082,0.06l-0.087,0.405 c-0.004,0.022,0.001,0.044,0.014,0.062c0.013,0.018,0.033,0.03,0.055,0.033 c0.07,0.009,0.14,0.017,0.212,0.022c0.115,0.009,0.232,0.014,0.349,0.014 c0.446,0,0.817-0.086,1.103-0.274c0.283-0.186,0.482-0.474,0.543-0.869 c0.009-0.06,0.015-0.119,0.015-0.176v-0.336c0-0.039-0.032-0.071-0.071-0.071H21.256z M15.001,18.499c-0.169,0-0.336-0.009-0.503-0.027c-0.825-0.09-1.454-0.396-1.863-0.91 c-0.396-0.498-0.594-1.149-0.594-1.948c0-1.334,0.716-2.621,1.518-3.582 c0.397-0.476,0.817-0.888,1.238-1.19c0.419-0.301,0.839-0.492,1.246-0.555 c0.085-0.013,0.169-0.02,0.254-0.02c0.169,0,0.336,0.009,0.502,0.027 c0.825,0.09,1.455,0.396,1.863,0.91c0.396,0.499,0.594,1.15,0.594,1.948 c0,1.334-0.716,2.621-1.518,3.582c-0.397,0.476-0.817,0.888-1.238,1.19 c-0.419,0.301-0.839,0.492-1.246,0.555C15.169,18.492,15.085,18.499,15.001,18.499z M15.297,11.116c-0.283,0.055-0.585,0.197-0.9,0.42c-0.32,0.229-0.652,0.552-0.964,0.927 c-0.532,0.64-0.997,1.401-1.175,2.086c-0.076,0.292-0.115,0.564-0.115,0.813 c0,0.481,0.128,0.858,0.373,1.122c0.255,0.276,0.647,0.445,1.135,0.498 c0.105,0.012,0.211,0.018,0.316,0.018c0.283-0.055,0.585-0.197,0.9-0.42 c0.32-0.229,0.652-0.552,0.964-0.927c0.532-0.64,0.997-1.401,1.175-2.086 c0.076-0.292,0.115-0.564,0.115-0.813c0-0.481-0.128-0.858-0.373-1.122 c-0.255-0.276-0.647-0.445-1.135-0.498C15.508,11.122,15.402,11.116,15.297,11.116z" fill="white"/>
</svg> 