<svg xmlns="http://www.w3.org/2000/svg" width="100" height="100" viewBox="0 0 100 100">
  <circle cx="50" cy="50" r="50" fill="#E84142"/>
  <path fill="#fff" d="M65.54 69.59H51.8a2.46 2.46 0 01-2.11-1.2L35.94 43.51a2.46 2.46 0 012.12-3.72h8.42a2.46 2.46 0 012.14 1.25l15.05 25.33a2.46 2.46 0 01-2.13 3.67zM28.5 69.59c-1.98 0-3.24-2.14-2.27-3.87l7.73-13.83c.46-.83 1.33-1.34 2.27-1.34h.01a2.46 2.46 0 012.14 1.25l7.55 12.96c.93 1.6-.26 3.59-2.14 3.59L28.5 69.59zm23.04-30.64l-4.77-8.14a2.46 2.46 0 012.14-3.67h9.4a2.46 2.46 0 012.12 1.21l4.84 8.31a2.46 2.46 0 01-2.12 3.71h-9.54a2.46 2.46 0 01-2.07-1.2v-.22z"/>
</svg> 