<svg xmlns="http://www.w3.org/2000/svg" width="100" height="100" viewBox="0 0 100 100">
  <circle cx="50" cy="50" r="50" fill="#F0B90B"/>
  <path fill="#fff" d="M39.955 50L34.83 55.125l-5.125-5.124 5.125-5.125 5.125 5.125zm10.05-10.05L38.7 28.65 28.5 38.85l5.124 5.125 5.125-5.125 5.125 5.125 5.125-5.125 5.125 5.125 5.124-5.125-10.2-10.2-.048.048zm21.495 10.05l-5.125-5.125-5.125 5.125 5.125 5.125 5.125-5.125zm-21.5 21.5l11.303-11.3-5.124-5.125-6.178 6.178-6.178-6.178-5.124 5.124 11.303 11.3zM50 45.032l5.126 5.125-5.125 5.125-5.125-5.125L50 45.03z"/>
</svg> 