<svg xmlns="http://www.w3.org/2000/svg" width="100" height="100" viewBox="0 0 100 100">
  <circle cx="50" cy="50" r="50" fill="#FF0420"/>
  <path fill="#fff" d="M32.5 33.958c-4.417 0-8 3.583-8 8v16.084c0 4.417 3.583 8 8 8h35c4.417 0 8-3.583 8-8V41.958c0-4.417-3.583-8-8-8h-35zm12.416 24.5c-3.533 0-6.416-2.808-6.416-6.342 0-3.533 2.883-6.416 6.416-6.416 1.992 0 3.692.883 4.867 2.2l-2.342 2.3a3.246 3.246 0 00-2.525-1.2c-1.75 0-3.116 1.45-3.116 3.116 0 1.667 1.367 3.042 3.116 3.042 1.05 0 1.95-.5 2.525-1.2l2.342 2.292c-1.175 1.316-2.875 2.208-4.867 2.208zm16.217 0c-3.533 0-6.425-2.883-6.425-6.417 0-3.533 2.892-6.425 6.425-6.425 3.534 0 6.417 2.892 6.417 6.425 0 3.534-2.883 6.417-6.417 6.417zm0-3.3c1.75 0 3.125-1.383 3.125-3.133 0-1.75-1.375-3.125-3.125-3.125s-3.125 1.375-3.125 3.125c0 1.75 1.375 3.133 3.125 3.133z"/>
</svg> 