<svg xmlns="http://www.w3.org/2000/svg" width="100" height="100" viewBox="0 0 100 100">
  <circle cx="50" cy="50" r="50" fill="#8247E5"/>
  <path fill="#fff" d="M65.709 37.873c-1.733-1.02-4-1.02-5.876 0L51.02 42.442l-6.04 3.306-8.856 4.873c-1.733 1.02-4 1.02-5.876 0-1.733-1.02-2.938-2.898-2.938-4.873v-9.6c0-2.02 1.062-3.898 2.938-4.873 1.733-1.02 4-1.02 5.876 0l8.855 5.029 3.02-1.715-8.855-5.02c-1.733-1.02-4-1.02-5.876 0-1.733 1.02-2.938 2.898-2.938 4.873v9.6c0 2.02 1.062 3.898 2.938 4.873 1.733 1.02 4 1.02 5.876 0l8.856-4.873 6.04-3.306 8.856-4.873c1.733-1.02 4-1.02 5.876 0 1.733 1.02 2.938 2.898 2.938 4.873v9.6c0 2.02-1.062 3.898-2.938 4.873-1.733 1.02-4 1.02-5.876 0l-8.855-5.02-3.02 1.716 8.855 5.02c1.733 1.02 4 1.02 5.876 0 1.733-1.02 2.938-2.898 2.938-4.873v-9.6c0-1.878-1.062-3.756-2.938-4.776z"/>
</svg> 